<?xml version="1.0" encoding="UTF-8" standalone="no"?>
<svg
   xmlns:dc="http://purl.org/dc/elements/1.1/"
   xmlns:cc="http://creativecommons.org/ns#"
   xmlns:rdf="http://www.w3.org/1999/02/22-rdf-syntax-ns#"
   xmlns:svg="http://www.w3.org/2000/svg"
   xmlns="http://www.w3.org/2000/svg"
   xmlns:sodipodi="http://sodipodi.sourceforge.net/DTD/sodipodi-0.dtd"
   xmlns:inkscape="http://www.inkscape.org/namespaces/inkscape"
   inkscape:export-ydpi="576"
   inkscape:export-xdpi="576"
   inkscape:export-filename="D:\project\finish project september adnan\expanded line\png\1 - Coding.png"
   sodipodi:docname="2 - Website Maintenance.svg"
   inkscape:version="1.0 (4035a4fb49, 2020-05-01)"
   id="svg831"
   version="1.1"
   viewBox="0 0 22.577778 22.577778"
   height="64pt"
   width="64pt">
  <defs
     id="defs825">
    <pattern
       y="0"
       x="0"
       height="6"
       width="6"
       patternUnits="userSpaceOnUse"
       id="EMFhbasepattern" />
    <pattern
       y="0"
       x="0"
       height="6"
       width="6"
       patternUnits="userSpaceOnUse"
       id="EMFhbasepattern-9" />
    <pattern
       y="0"
       x="0"
       height="6"
       width="6"
       patternUnits="userSpaceOnUse"
       id="EMFhbasepattern-0" />
    <pattern
       y="0"
       x="0"
       height="6"
       width="6"
       patternUnits="userSpaceOnUse"
       id="EMFhbasepattern-7" />
    <pattern
       y="0"
       x="0"
       height="6"
       width="6"
       patternUnits="userSpaceOnUse"
       id="EMFhbasepattern-2" />
    <pattern
       y="0"
       x="0"
       height="6"
       width="6"
       patternUnits="userSpaceOnUse"
       id="EMFhbasepattern-98" />
    <pattern
       y="0"
       x="0"
       height="6"
       width="6"
       patternUnits="userSpaceOnUse"
       id="EMFhbasepattern-6" />
    <pattern
       y="0"
       x="0"
       height="6"
       width="6"
       patternUnits="userSpaceOnUse"
       id="EMFhbasepattern-01" />
    <pattern
       y="0"
       x="0"
       height="6"
       width="6"
       patternUnits="userSpaceOnUse"
       id="EMFhbasepattern-07" />
    <pattern
       y="0"
       x="0"
       height="6"
       width="6"
       patternUnits="userSpaceOnUse"
       id="EMFhbasepattern-8" />
    <pattern
       y="0"
       x="0"
       height="6"
       width="6"
       patternUnits="userSpaceOnUse"
       id="EMFhbasepattern-4" />
    <pattern
       y="0"
       x="0"
       height="6"
       width="6"
       patternUnits="userSpaceOnUse"
       id="EMFhbasepattern-40" />
    <pattern
       y="0"
       x="0"
       height="6"
       width="6"
       patternUnits="userSpaceOnUse"
       id="EMFhbasepattern-08" />
    <pattern
       y="0"
       x="0"
       height="6"
       width="6"
       patternUnits="userSpaceOnUse"
       id="EMFhbasepattern-04" />
    <pattern
       y="0"
       x="0"
       height="6"
       width="6"
       patternUnits="userSpaceOnUse"
       id="EMFhbasepattern-014" />
    <pattern
       y="0"
       x="0"
       height="6"
       width="6"
       patternUnits="userSpaceOnUse"
       id="EMFhbasepattern-27" />
    <pattern
       y="0"
       x="0"
       height="6"
       width="6"
       patternUnits="userSpaceOnUse"
       id="EMFhbasepattern-09" />
    <pattern
       y="0"
       x="0"
       height="6"
       width="6"
       patternUnits="userSpaceOnUse"
       id="EMFhbasepattern-5" />
    <pattern
       y="0"
       x="0"
       height="6"
       width="6"
       patternUnits="userSpaceOnUse"
       id="EMFhbasepattern-018" />
  </defs>
  <sodipodi:namedview
     inkscape:document-rotation="0"
     inkscape:snap-global="true"
     inkscape:snap-nodes="false"
     inkscape:bbox-nodes="true"
     inkscape:snap-bbox="true"
     showguides="true"
     inkscape:snap-midpoints="true"
     inkscape:snap-smooth-nodes="true"
     inkscape:snap-intersection-paths="true"
     inkscape:object-paths="true"
     inkscape:showpageshadow="false"
     inkscape:pagecheckerboard="true"
     inkscape:window-maximized="1"
     inkscape:window-y="-8"
     inkscape:window-x="-8"
     inkscape:window-height="706"
     inkscape:window-width="1366"
     units="pt"
     showgrid="false"
     inkscape:current-layer="layer1"
     inkscape:document-units="pt"
     inkscape:cy="42.666667"
     inkscape:cx="42.666667"
     inkscape:zoom="6.2578125"
     inkscape:pageshadow="2"
     inkscape:pageopacity="0.0"
     borderopacity="1.0"
     bordercolor="#666666"
     pagecolor="#ffffff"
     id="base">
    <inkscape:grid
       id="grid1378"
       type="xygrid" />
    <sodipodi:guide
       inkscape:locked="false"
       id="guide1380"
       orientation="78.000048,0"
       position="0.97013831,21.607643" />
    <sodipodi:guide
       inkscape:locked="false"
       id="guide1382"
       orientation="0,78.000005"
       position="0.97013831,0.97013129" />
    <sodipodi:guide
       inkscape:locked="false"
       id="guide1384"
       orientation="-78.000048,0"
       position="21.607639,0.97013129" />
    <sodipodi:guide
       inkscape:locked="false"
       id="guide1386"
       orientation="0,-78.000005"
       position="21.607639,21.607643" />
  </sodipodi:namedview>
  <metadata
     id="metadata828">
    <rdf:RDF>
      <cc:Work
         rdf:about="">
        <dc:format>image/svg+xml</dc:format>
        <dc:type
           rdf:resource="http://purl.org/dc/dcmitype/StillImage" />
        <dc:title></dc:title>
      </cc:Work>
    </rdf:RDF>
  </metadata>
  <g
     transform="translate(0,-274.42223)"
     id="layer1"
     inkscape:groupmode="layer"
     inkscape:label="Icon">
    <path
       id="path1091"
       style="color:#000000;font-style:normal;font-variant:normal;font-weight:normal;font-stretch:normal;font-size:medium;line-height:normal;font-family:sans-serif;font-variant-ligatures:normal;font-variant-position:normal;font-variant-caps:normal;font-variant-numeric:normal;font-variant-alternates:normal;font-variant-east-asian:normal;font-feature-settings:normal;font-variation-settings:normal;text-indent:0;text-align:start;text-decoration:none;text-decoration-line:none;text-decoration-style:solid;text-decoration-color:#000000;letter-spacing:normal;word-spacing:normal;text-transform:none;writing-mode:lr-tb;direction:ltr;text-orientation:mixed;dominant-baseline:auto;baseline-shift:baseline;text-anchor:start;white-space:normal;shape-padding:0;shape-margin:0;inline-size:0;clip-rule:nonzero;display:inline;overflow:visible;visibility:visible;isolation:auto;mix-blend-mode:normal;color-interpolation:sRGB;color-interpolation-filters:linearRGB;solid-color:#000000;solid-opacity:1;vector-effect:none;fill:#000000;fill-opacity:1;fill-rule:nonzero;stroke:none;stroke-width:0.529167;stroke-linecap:round;stroke-linejoin:round;stroke-miterlimit:4;stroke-dasharray:none;stroke-dashoffset:0;stroke-opacity:1;color-rendering:auto;image-rendering:auto;shape-rendering:auto;text-rendering:auto;enable-background:accumulate;stop-color:#000000"
       d="m 1.6702347,277.41022 c -0.3809961,0 -0.70013989,0.31719 -0.70013989,0.6982 v 12.28206 c 0,0.38101 0.31914379,0.70079 0.70013989,0.70079 H 15.091896 v 0.0136 c 0,0.31016 0.257365,0.56818 0.567524,0.56818 h 0.414754 c 0.02506,0 0.01892,0.003 0.02405,0.015 0.0052,0.0126 0.01107,0.0101 -0.0065,0.0279 l -0.29189,0.2919 c -0.21945,0.21934 -0.219357,0.58543 0,0.8048 l 0.492766,0.49276 c 0.219347,0.21925 0.58546,0.21925 0.804805,0 l 0.291888,-0.29189 c 0.01771,-0.0177 0.01555,-0.0101 0.02795,-0.005 0.01245,0.005 0.01495,-0.004 0.01495,0.0215 v 0.41409 c 0,0.31016 0.258015,0.56819 0.568174,0.56819 h 0.699493 c 0.310082,0 0.567524,-0.25804 0.567524,-0.56819 v -0.41409 c 0,-0.025 0.0026,-0.0165 0.01495,-0.0215 0.01245,-0.005 0.0083,-0.0138 0.026,0.005 l 0.293838,0.29189 c 0.219346,0.21925 0.583511,0.21925 0.802856,0 l 0.494715,-0.49276 c 0.21945,-0.21935 0.219361,-0.58545 0,-0.8048 l -0.291239,-0.2919 c -0.01771,-0.0177 -0.01157,-0.0156 -0.0065,-0.0279 0.005,-0.0126 -0.0018,-0.015 0.0234,-0.015 h 0.412153 c 0.310085,0 0.570126,-0.25803 0.570126,-0.56818 v -0.69689 c 0,-0.31015 -0.259949,-0.57012 -0.570126,-0.57012 h -0.41224 c -0.02505,0 -0.01828,-0.003 -0.0234,-0.015 -0.005,-0.0126 -0.0112,-0.008 0.0065,-0.026 l 0.291239,-0.29384 c 0.21945,-0.21934 0.219361,-0.58348 0,-0.80285 l -0.494715,-0.49472 c -0.219348,-0.21924 -0.58351,-0.21924 -0.802856,0 l -0.293838,0.29384 c -0.01771,0.0177 -0.0136,0.0101 -0.026,0.005 -0.01245,-0.005 -0.01495,0.004 -0.01495,-0.0221 v -0.41411 c 0,-0.31016 -0.257346,-0.56817 -0.567524,-0.56817 h -0.08841 v -9.39178 c 0,-0.38099 -0.317195,-0.6982 -0.698192,-0.6982 z m 0,0.66569 H 17.913266 c 0.02371,0 0.03185,0.009 0.03185,0.0326 v 1.99706 H 1.6357821 v -1.99706 c 0,-0.0238 0.010756,-0.0326 0.034453,-0.0326 z m 0.9653763,0.6982 a 0.33284383,0.33284383 0 0 0 -0.3341417,0.33413 0.33284383,0.33284383 0 0 0 0.3341417,0.33155 h 0.3315456 a 0.33284383,0.33284383 0 0 0 0.3341417,-0.33155 0.33284383,0.33284383 0 0 0 -0.3341417,-0.33413 z m 1.6635691,0 a 0.33284383,0.33284383 0 0 0 -0.3315422,0.33413 0.33284383,0.33284383 0 0 0 0.3315422,0.33155 h 0.3341451 a 0.33284383,0.33284383 0 0 0 0.3315422,-0.33155 0.33284383,0.33284383 0 0 0 -0.3315422,-0.33413 z m 1.6635685,0 a 0.33284383,0.33284383 0 0 0 -0.332194,0.33413 0.33284383,0.33284383 0 0 0 0.332194,0.33155 h 0.3341437 a 0.33284383,0.33284383 0 0 0 0.3315435,-0.33155 0.33284383,0.33284383 0 0 0 -0.3315435,-0.33413 z m -4.3269665,1.99705 H 17.945119 v 6.73488 c -0.284707,0.0287 -0.512917,0.27099 -0.512917,0.56232 v 0.41411 c 1e-6,0.0252 -0.0026,0.0171 -0.01495,0.0221 -0.01245,0.005 -0.01032,0.0132 -0.02795,-0.005 l -0.291888,-0.29384 c -0.219347,-0.21925 -0.585458,-0.21925 -0.804805,0 l -0.492765,0.49471 c -0.219451,0.21936 -0.219357,0.5835 0,0.80285 l 0.291889,0.29385 c 0.01771,0.0177 0.0117,0.0136 0.0065,0.026 -0.0052,0.0126 9.65e-4,0.015 -0.02405,0.015 h -0.414754 c -0.310273,0 -0.567524,0.25994 -0.567524,0.57012 v 0.0169 H 1.6702347 c -0.023698,0 -0.034453,-0.0101 -0.034453,-0.0345 z m 3.0931058,0.67675 c -0.2816356,0 -0.562559,0.13387 -0.7183464,0.4037 l -1.5959586,2.76545 c -0.3115716,0.53966 0.095204,1.24492 0.7183431,1.24492 h 3.1912698 c 0.6231449,0 1.0318675,-0.70526 0.7202946,-1.24492 l -1.595958,-2.76545 c -0.1557874,-0.26983 -0.4380122,-0.4037 -0.7196445,-0.4037 z m 0,0.64488 c 0.053232,0 0.1060336,0.0306 0.1417182,0.0923 l 1.5979087,2.76545 c 0.071366,0.12366 -0.00153,0.24639 -0.144319,0.24639 H 3.132926 c -0.1427266,0 -0.2137322,-0.12278 -0.1423672,-0.24639 l 1.5959586,-2.76545 c 0.035684,-0.0618 0.089135,-0.0923 0.1423705,-0.0923 z m 0,0.57792 a 0.33284347,0.33284347 0 0 0 -0.3321946,0.33155 v 1.02713 a 0.33284347,0.33284347 0 0 0 0.3321946,0.3335 0.33284347,0.33284347 0 0 0 0.3334928,-0.3335 v -1.02713 a 0.33284347,0.33284347 0 0 0 -0.3334928,-0.33155 z m 0,1.79684 a 0.33284347,0.33284347 0 0 0 -0.3321946,0.3335 0.33284347,0.33284347 0 0 0 0.3321946,0.33154 0.33284347,0.33284347 0 0 0 0.3334928,-0.33154 0.33284347,0.33284347 0 0 0 -0.3334928,-0.3335 z m -2.0932769,1.96261 a 0.33284383,0.33284383 0 0 0 -0.3341417,0.33154 0.33284383,0.33284383 0 0 0 0.3341417,0.33414 h 2.3292564 a 0.33284383,0.33284383 0 0 0 0.334145,-0.33414 0.33284383,0.33284383 0 0 0 -0.334145,-0.33154 z m 3.6612813,0 a 0.33284383,0.33284383 0 0 0 -0.3341437,0.33154 0.33284383,0.33284383 0 0 0 0.3341437,0.33414 h 6.9897167 a 0.33284383,0.33284383 0 0 0 0.332194,-0.33414 0.33284383,0.33284383 0 0 0 -0.332194,-0.33154 z m -3.6612813,1.33137 a 0.33284383,0.33284383 0 0 0 -0.3341417,0.33154 0.33284383,0.33284383 0 0 0 0.3341417,0.33479 h 10.650998 a 0.33284383,0.33284383 0 0 0 0.332194,-0.33479 0.33284383,0.33284383 0 0 0 -0.332194,-0.33154 z m 15.461628,0.4037 h 0.505117 v 0.31724 c -3e-6,0.29335 0.189448,0.53917 0.425805,0.63708 0.236356,0.098 0.543424,0.0586 0.750848,-0.14887 l 0.224931,-0.22427 0.356246,0.35625 -0.222329,0.22427 c -0.207424,0.20743 -0.249375,0.51514 -0.15147,0.7515 0.09791,0.23638 0.34569,0.42712 0.639033,0.4271 h 0.315292 v 0.50318 H 20.62542 c -0.293331,10e-6 -0.54113,0.18878 -0.639033,0.42515 -0.09791,0.23635 -0.05594,0.54668 0.15147,0.7541 l 0.222329,0.22232 -0.356246,0.35626 -0.224931,-0.22233 c -0.20742,-0.2074 -0.514489,-0.24743 -0.750848,-0.14952 -0.236359,0.0979 -0.425802,0.34374 -0.425805,0.63708 v 0.31724 h -0.505117 v -0.31724 c -3e-6,-0.29334 -0.188802,-0.53919 -0.425156,-0.63708 -0.236352,-0.098 -0.546025,-0.0579 -0.753449,0.14952 l -0.222328,0.22428 -0.358847,-0.35821 0.224929,-0.22232 c 0.207417,-0.20742 0.248723,-0.51775 0.15082,-0.7541 -0.09791,-0.23637 -0.345704,-0.42514 -0.639034,-0.42515 h -0.317242 v -0.50318 h 0.317242 c 0.293343,2e-5 0.541128,-0.19072 0.639034,-0.4271 0.09791,-0.23636 0.05661,-0.54407 -0.15082,-0.7515 l -0.222329,-0.22427 0.353646,-0.35625 0.224929,0.22427 c 0.207422,0.20742 0.517088,0.24678 0.753449,0.14887 0.236363,-0.098 0.425159,-0.34373 0.425156,-0.63708 z m -6.142004,0.92832 a 0.33284383,0.33284383 0 0 0 -0.334144,0.33155 0.33284383,0.33284383 0 0 0 0.334144,0.33414 h 1.331374 a 0.33284383,0.33284383 0 0 0 0.332194,-0.33414 0.33284383,0.33284383 0 0 0 -0.332194,-0.33155 z m 6.394887,0.15993 c -0.826012,0 -1.503009,0.67698 -1.502997,1.50299 1e-5,0.82599 0.677002,1.50235 1.502997,1.50235 0.825994,0 1.502338,-0.67636 1.502347,-1.50235 1.5e-5,-0.82601 -0.676337,-1.50299 -1.502347,-1.50299 z m 0,0.66699 c 0.466242,0 0.837318,0.36976 0.837311,0.836 -7e-6,0.46623 -0.371079,0.83732 -0.837311,0.83732 -0.466234,0 -0.837955,-0.37109 -0.83796,-0.83732 -7e-6,-0.46625 0.371716,-0.836 0.83796,-0.836 z" />
  </g>
</svg>
