<svg xmlns="http://www.w3.org/2000/svg" width="87.381" height="30" viewBox="0 0 87.381 30">
  <g id="HORIZONTAL_SIN_SLOGAN_BLANCO" data-name="HORIZONTAL SIN SLOGAN BLANCO" transform="translate(43.69 15)">
    <g id="Grupo_374" data-name="Grupo 374" transform="translate(-43.69 -15)">
      <g id="Grupo_370" data-name="Grupo 370">
        <path id="Trazado_57" data-name="Trazado 57" d="M15.723,53.359a4.552,4.552,0,0,0,2.825-4.588c0-4.045-2.812-6-8.082-6H0V59.788a1.994,1.994,0,0,0,2,1.985H5v-6h6.009c2.435,0,3.99.867,3.99,3,0,2.034-1.556,3-3.99,3H5v4h6.7c4.346,0,8.5-1.593,8.5-7A5.256,5.256,0,0,0,15.723,53.359ZM9.333,51.773H5v-5H9.333c2.5,0,3.958.59,3.958,2.46C13.29,51.268,11.836,51.773,9.333,51.773Z" transform="translate(0 -35.773)" fill="#fff"/>
        <path id="Trazado_58" data-name="Trazado 58" d="M136.429,85.546a2.007,2.007,0,0,0-2,2v14h5v-16Z" transform="translate(-112.429 -71.546)" fill="#fff"/>
        <path id="Trazado_59" data-name="Trazado 59" d="M135.428,42.773a1,1,0,0,0-1,1v3h4a1,1,0,0,0,1-1v-3Z" transform="translate(-112.428 -35.773)" fill="#00b3cd"/>
        <path id="Trazado_60" data-name="Trazado 60" d="M172.982,0h-6a2.006,2.006,0,0,0-2,2V7h6a2.006,2.006,0,0,0,2-2Z" transform="translate(-137.982)" fill="#ffa600"/>
      </g>
      <g id="Grupo_373" data-name="Grupo 373" transform="translate(35.068 14)">
        <g id="Grupo_371" data-name="Grupo 371">
          <path id="Trazado_61" data-name="Trazado 61" d="M214.28,90.756v-4.7H216.1c1.256,0,1.816.351,1.816,1.138a.916.916,0,0,1-.533.943l-.2.083.205.059a1.029,1.029,0,0,1,.856,1.134c0,.893-.608,1.346-1.808,1.346Zm.912-.709h1.249c.565,0,.889-.257.889-.706,0-.469-.316-.728-.889-.728h-1.249Zm0-2.094h.917c.459,0,.883-.073.883-.6s-.472-.589-.883-.589h-.917Z" transform="translate(-214.28 -85.969)" fill="#fff"/>
          <path id="Trazado_62" data-name="Trazado 62" d="M250.748,90.756l-.517-1.165h-2.146l-.532,1.165h-.932l2.092-4.7h.958l2.045,4.7Zm-2.39-1.825h1.591l-.788-1.938Z" transform="translate(-241.327 -85.969)" fill="#fff"/>
          <path id="Trazado_63" data-name="Trazado 63" d="M290.924,90.755l-2.33-3.422v3.422h-.912v-4.7h.989l2.323,3.407V86.052h.912v4.7Z" transform="translate(-275.668 -85.969)" fill="#fff"/>
          <path id="Trazado_64" data-name="Trazado 64" d="M328.4,90.416a2.136,2.136,0,0,1-2.229-2.407,2.229,2.229,0,0,1,2.41-2.463,3.556,3.556,0,0,1,1.579.372l-.26.626a3.643,3.643,0,0,0-1.326-.275c-.348,0-1.483.125-1.483,1.74s1.115,1.684,1.338,1.684a3.177,3.177,0,0,0,1.51-.45l.368.648A3.684,3.684,0,0,1,328.4,90.416Z" transform="translate(-307.862 -85.546)" fill="#fff"/>
          <path id="Trazado_65" data-name="Trazado 65" d="M362.227,90.416a2.437,2.437,0,1,1,2.547-2.435A2.261,2.261,0,0,1,362.227,90.416Zm0-4.147c-1.071,0-1.614.576-1.614,1.712s.543,1.712,1.614,1.712a1.714,1.714,0,0,0,0-3.424Z" transform="translate(-335.896 -85.546)" fill="#fff"/>
        </g>
        <g id="Grupo_372" data-name="Grupo 372" transform="translate(0 6.953)">
          <rect id="Rect치ngulo_167" data-name="Rect치ngulo 167" width="0.92" height="4.742" transform="translate(0 0.084)" fill="#fff"/>
          <path id="Trazado_66" data-name="Trazado 66" d="M237.614,133.281l-2.349-3.45v3.45h-.92v-4.742h1l2.342,3.435v-3.435h.92v4.742Z" transform="translate(-231.061 -128.456)" fill="#fff"/>
          <path id="Trazado_67" data-name="Trazado 67" d="M274.806,133.281v-4.742h1.678c1.2,0,2.637.412,2.637,2.371s-1.434,2.371-2.637,2.371Zm.92-.715h.772a1.657,1.657,0,1,0,0-3.312h-.772Z" transform="translate(-264.901 -128.456)" fill="#fff"/>
          <path id="Trazado_68" data-name="Trazado 68" d="M315.538,133.365c-1.458,0-2.053-.539-2.053-1.861v-2.965h.92v3c0,.794.318,1.1,1.133,1.1.835,0,1.175-.32,1.175-1.1v-3h.864V131.5C317.578,132.826,316.987,133.365,315.538,133.365Z" transform="translate(-297.249 -128.456)" fill="#fff"/>
          <path id="Trazado_69" data-name="Trazado 69" d="M351.17,132.939a3.825,3.825,0,0,1-2.058-.558l.408-.668a3.185,3.185,0,0,0,1.6.5c.578,0,1.2-.181,1.2-.691,0-.468-.52-.605-1.023-.738-1.354-.36-1.953-.555-1.953-1.408,0-1.11,1.048-1.343,1.928-1.343a3.951,3.951,0,0,1,1.766.394l-.271.668a3.8,3.8,0,0,0-1.545-.334c-.409,0-.953.049-.953.475,0,.344.052.5,1.349.877l.146.042c.8.229,1.49.428,1.49,1.36C353.252,132.691,352.12,132.939,351.17,132.939Z" transform="translate(-327.046 -128.029)" fill="#fff"/>
          <path id="Trazado_70" data-name="Trazado 70" d="M384.975,133.281v-4.062H383.41v-.68h4.015v.68h-1.537v4.062Z" transform="translate(-355.731 -128.456)" fill="#fff"/>
          <path id="Trazado_71" data-name="Trazado 71" d="M423.362,133.375a1.01,1.01,0,0,1-1.013-.5l-.878-1.513h-1.1v1.916h-.92v-4.742h2.08c1.312,0,1.823.4,1.823,1.413a1.229,1.229,0,0,1-.832,1.3l-.087.03.575,1a.725.725,0,0,0,.7.4l.086,0v.658l-.3.023Zm-2.991-2.731h1.161c.466,0,.9-.084.9-.7s-.453-.692-.9-.692h-1.161Z" transform="translate(-385.874 -128.456)" fill="#fff"/>
          <rect id="Rect치ngulo_168" data-name="Rect치ngulo 168" width="0.92" height="4.742" transform="translate(39.733 0.084)" fill="#fff"/>
          <path id="Trazado_72" data-name="Trazado 72" d="M476.868,133.281l-.521-1.174h-2.164l-.536,1.174h-.94l2.109-4.742h.966l2.061,4.742Zm-2.41-1.84h1.6l-.795-1.954Z" transform="translate(-430.414 -128.456)" fill="#fff"/>
          <path id="Trazado_73" data-name="Trazado 73" d="M514.1,133.281v-4.742h.92v4.027h2.324v.715Z" transform="translate(-465.035 -128.456)" fill="#fff"/>
        </g>
      </g>
      <path id="Trazado_74" data-name="Trazado 74" d="M172.982,0h-6a2.006,2.006,0,0,0-2,2V7h6a2.006,2.006,0,0,0,2-2Z" transform="translate(-137.982)" fill="#ffa600"/>
    </g>
  </g>
</svg>
