<svg xmlns="http://www.w3.org/2000/svg" width="200" height="171.826" viewBox="0 0 200 171.826">
  <g id="Logo_Horizontal_ORIGINAL" data-name="Logo Horizontal ORIGINAL" transform="translate(100 85.913)">
    <g id="Grupo_173" data-name="Grupo 173" transform="translate(-100 -85.913)">
      <path id="Trazado_368" data-name="Trazado 368" d="M179.754,106.925s10.407-3.279,10.407-16.9c0-14.9-10.357-22.094-29.767-22.094H121.839V130.6a7.344,7.344,0,0,0,7.366,7.312h11.051v-22.1l22.134,0c8.967,0,14.7,3.193,14.7,11.047,0,7.493-5.731,11.051-14.7,11.051H140.256v14.733h24.672c16.009,0,31.314-5.868,31.314-25.781C196.242,114.22,187.309,108.2,179.754,106.925Zm-23.539-5.842H140.256V82.665h15.959c9.219,0,14.578,2.174,14.578,9.062C170.793,99.22,165.434,101.083,156.215,101.083Z" transform="translate(-75.594 -42.147)" fill="#003865"/>
      <path id="Trazado_369" data-name="Trazado 369" d="M342.705,135.863a7.392,7.392,0,0,0-7.367,7.367V194.8h18.418V135.863Z" transform="translate(-208.057 -84.295)" fill="#003865"/>
      <path id="Trazado_370" data-name="Trazado 370" d="M339.021,67.932a3.7,3.7,0,0,0-3.684,3.683v11.05H350.07a3.7,3.7,0,0,0,3.685-3.684V67.932Z" transform="translate(-208.057 -42.148)" fill="#00c1d4"/>
      <path id="Trazado_371" data-name="Trazado 371" d="M413.33,0h-22.1a7.391,7.391,0,0,0-7.366,7.366V25.784h22.1a7.39,7.39,0,0,0,7.367-7.365Z" transform="translate(-238.163)" fill="#ffc000"/>
      <path id="Trazado_372" data-name="Trazado 372" d="M0,371.068V359.976H4.3c2.961,0,4.281.828,4.281,2.684a2.161,2.161,0,0,1-1.258,2.223l-.464.2.484.14a2.427,2.427,0,0,1,2.018,2.674c0,2.106-1.435,3.174-4.264,3.174ZM2.151,369.4H5.1c1.332,0,2.1-.607,2.1-1.666,0-1.107-.744-1.716-2.1-1.716H2.151Zm0-4.938H4.313c1.081,0,2.081-.172,2.081-1.421,0-1.23-1.112-1.388-2.081-1.388H2.151Z" transform="translate(0 -223.344)" fill="#003865"/>
      <path id="Trazado_373" data-name="Trazado 373" d="M42.614,371.068l-1.22-2.747H36.333l-1.254,2.747h-2.2l4.933-11.091h2.26l4.822,11.091Zm-5.637-4.3h3.752l-1.859-4.57Z" transform="translate(-20.4 -223.344)" fill="#003865"/>
      <path id="Trazado_374" data-name="Trazado 374" d="M82.274,371.067,76.779,363v8.068H74.628V359.976h2.333l5.477,8.034v-8.034h2.151v11.091Z" transform="translate(-46.302 -223.343)" fill="#003865"/>
      <path id="Trazado_375" data-name="Trazado 375" d="M119.022,370.944c-1.233,0-5.257-.41-5.257-5.676,0-5.241,3.974-5.807,5.682-5.807a8.387,8.387,0,0,1,3.723.877l-.614,1.476a8.588,8.588,0,0,0-3.126-.649c-.82,0-3.5.3-3.5,4.1,0,3.78,2.628,3.971,3.155,3.971a7.49,7.49,0,0,0,3.561-1.062l.869,1.528A8.689,8.689,0,0,1,119.022,370.944Z" transform="translate(-70.584 -223.024)" fill="#003865"/>
      <path id="Trazado_376" data-name="Trazado 376" d="M153.819,370.944c-2.231,0-5.973-.746-5.973-5.742s3.742-5.742,5.973-5.742,6,.747,6,5.742S156.062,370.944,153.819,370.944Zm0-9.779c-2.526,0-3.807,1.359-3.807,4.038s1.281,4.037,3.807,4.037c2.51,0,3.837-1.4,3.837-4.037S156.33,361.165,153.819,361.165Z" transform="translate(-91.73 -223.024)" fill="#003865"/>
      <rect id="Rect치ngulo_179" data-name="Rect치ngulo 179" width="2.151" height="11.091" transform="translate(77.644 136.632)" fill="#003865"/>
      <path id="Trazado_377" data-name="Trazado 377" d="M232.445,371.067,226.95,363v8.068H224.8V359.976h2.333l5.477,8.034v-8.034h2.151v11.091Z" transform="translate(-139.475 -223.343)" fill="#003865"/>
      <path id="Trazado_378" data-name="Trazado 378" d="M265.6,371.068V359.976h3.925c2.813,0,6.168.963,6.168,5.546s-3.355,5.545-6.168,5.545Zm2.151-1.672h1.8c1.475,0,3.952-.5,3.952-3.873s-2.476-3.874-3.952-3.874h-1.8Z" transform="translate(-164.791 -223.344)" fill="#003865"/>
      <path id="Trazado_379" data-name="Trazado 379" d="M309.414,371.264c-3.411,0-4.8-1.261-4.8-4.352v-6.936h2.151v7.018c0,1.858.743,2.582,2.651,2.582,1.953,0,2.749-.748,2.749-2.582v-7.018h2.022v6.936C314.185,370,312.8,371.264,309.414,371.264Z" transform="translate(-188.993 -223.344)" fill="#003865"/>
      <path id="Trazado_380" data-name="Trazado 380" d="M345.356,370.944a8.949,8.949,0,0,1-4.814-1.306l.954-1.563a7.449,7.449,0,0,0,3.747,1.164c1.352,0,2.8-.424,2.8-1.617,0-1.094-1.216-1.416-2.393-1.727-3.168-.841-4.569-1.3-4.569-3.294,0-2.6,2.452-3.141,4.509-3.141a9.244,9.244,0,0,1,4.131.923l-.633,1.561a8.9,8.9,0,0,0-3.613-.78c-.957,0-2.228.115-2.228,1.111,0,.8.121,1.166,3.155,2.052l.341.1c1.87.537,3.486,1,3.486,3.181C350.224,370.365,347.577,370.944,345.356,370.944Z" transform="translate(-211.286 -223.024)" fill="#003865"/>
      <path id="Trazado_381" data-name="Trazado 381" d="M378.791,371.067v-9.5h-3.659v-1.59h9.391v1.59h-3.6v9.5Z" transform="translate(-232.747 -223.343)" fill="#003865"/>
      <path id="Trazado_382" data-name="Trazado 382" d="M420.626,371.286a2.362,2.362,0,0,1-2.37-1.162l-2.053-3.538h-2.572v4.481H411.48V359.976h4.866c3.069,0,4.264.927,4.264,3.306a2.876,2.876,0,0,1-1.946,3.052l-.2.07,1.344,2.347a1.7,1.7,0,0,0,1.632.945c.065,0,.131,0,.2-.006v1.538l-.7.053Zm-6.995-6.388h2.715c1.09,0,2.1-.2,2.1-1.632s-1.061-1.618-2.1-1.618h-2.715Z" transform="translate(-255.299 -223.344)" fill="#003865"/>
      <rect id="Rect치ngulo_180" data-name="Rect치ngulo 180" width="2.151" height="11.091" transform="translate(170.579 136.632)" fill="#003865"/>
      <path id="Trazado_383" data-name="Trazado 383" d="M474.921,371.068l-1.22-2.747H468.64l-1.254,2.747h-2.2l4.933-11.091h2.26l4.822,11.091Zm-5.637-4.3h3.752l-1.859-4.57Z" transform="translate(-288.621 -223.344)" fill="#003865"/>
      <path id="Trazado_384" data-name="Trazado 384" d="M506.936,371.067V359.976h2.151V369.4h5.436v1.672Z" transform="translate(-314.523 -223.343)" fill="#003865"/>
      <path id="Trazado_385" data-name="Trazado 385" d="M5.7,430.542A2.639,2.639,0,0,1,2.8,433.213a3.266,3.266,0,0,1-2.8-1.4l.9-1.071a2.589,2.589,0,0,0,1.847.923c.936,0,1.231-.578,1.231-1.4V425.7H2.647l-.025-1.355H5.7Z" transform="translate(0 -263.283)" fill="#00c1d4"/>
      <path id="Trazado_386" data-name="Trazado 386" d="M26.011,435.8a1.172,1.172,0,0,0,.357-.062l.1,1a1.639,1.639,0,0,1-1.059.32,1.4,1.4,0,0,1-1.367-.714,2.953,2.953,0,0,1-1.995.69c-1.539,0-2.352-.886-2.352-2.573v-2.081c0-.258-.136-.419-.455-.419a1.183,1.183,0,0,0-.357.061l-.1-1a1.64,1.64,0,0,1,1.059-.32,1.381,1.381,0,0,1,1.527,1.527v2.081c0,1.133.332,1.366,1.022,1.366a3.841,3.841,0,0,0,1.489-.308v-4.617h1.675v4.629C25.555,435.644,25.69,435.8,26.011,435.8Z" transform="translate(-11.654 -267.228)" fill="#00c1d4"/>
      <path id="Trazado_387" data-name="Trazado 387" d="M41.559,431.842a1.178,1.178,0,0,0-.357.061l-.1-1a1.64,1.64,0,0,1,1.059-.32,1.391,1.391,0,0,1,1.4.8,2.959,2.959,0,0,1,2.228-.874c1.355,0,2.13.7,2.13,2.4v2.352c0,.259.135.419.455.419a1.167,1.167,0,0,0,.357-.062l.1,1a1.64,1.64,0,0,1-1.059.32,1.381,1.381,0,0,1-1.527-1.527v-2.339c0-.911-.382-1.207-1.022-1.207a1.7,1.7,0,0,0-1.539.849v4.076H42.015v-4.531C42.015,432,41.879,431.842,41.559,431.842Z" transform="translate(-25.502 -267.108)" fill="#00c1d4"/>
      <path id="Trazado_388" data-name="Trazado 388" d="M66.635,433.271a5.113,5.113,0,0,0,1.022-.136l.246,1.207a4.707,4.707,0,0,1-1.773.32c-.948,0-1.884-.369-1.884-1.774v-3.262H63.36l.1-1.182h.788v-1.416l1.675-.246v1.662h1.638l-.1,1.182H65.921v3.041C65.921,433.1,66.143,433.271,66.635,433.271Z" transform="translate(-39.311 -264.793)" fill="#00c1d4"/>
      <path id="Trazado_389" data-name="Trazado 389" d="M78.315,433.593a3.306,3.306,0,1,1,3.312,3.275A3.1,3.1,0,0,1,78.315,433.593Zm3.312,1.872c1.133,0,1.625-.776,1.625-1.872s-.492-1.921-1.625-1.921-1.638.825-1.638,1.921S80.482,435.464,81.627,435.464Z" transform="translate(-48.59 -266.987)" fill="#00c1d4"/>
      <path id="Trazado_390" data-name="Trazado 390" d="M103.893,430.916l-.554,1.243a4.062,4.062,0,0,0-1.9-.529c-.714,0-.825.259-.825.456,0,1.071,3.5.456,3.5,2.709,0,1.157-.973,2.093-2.672,2.093a5.29,5.29,0,0,1-2.721-.7l.5-1.219a4.566,4.566,0,0,0,2.179.554c.739,0,1.034-.2,1.034-.529,0-1.207-3.472-.394-3.472-2.671,0-1.047.788-1.97,2.548-1.97A5.2,5.2,0,0,1,103.893,430.916Z" transform="translate(-61.251 -267.006)" fill="#00c1d4"/>
      <path id="Trazado_391" data-name="Trazado 391" d="M117.874,444.693a.932.932,0,0,1-.726-.911.88.88,0,0,1,.911-.912,1.056,1.056,0,0,1,1.084,1.182,2.906,2.906,0,0,1-1.785,2.549l-.21-.406A2.041,2.041,0,0,0,117.874,444.693Z" transform="translate(-72.683 -274.774)" fill="#00c1d4"/>
      <path id="Trazado_392" data-name="Trazado 392" d="M140.424,430.916l-.554,1.243a4.062,4.062,0,0,0-1.9-.529c-.714,0-.825.259-.825.456,0,1.071,3.5.456,3.5,2.709,0,1.157-.973,2.093-2.672,2.093a5.287,5.287,0,0,1-2.721-.7l.5-1.219a4.566,4.566,0,0,0,2.179.554c.739,0,1.034-.2,1.034-.529,0-1.207-3.473-.394-3.473-2.671,0-1.047.788-1.97,2.549-1.97A5.2,5.2,0,0,1,140.424,430.916Z" transform="translate(-83.916 -267.006)" fill="#00c1d4"/>
      <path id="Trazado_393" data-name="Trazado 393" d="M153.47,426.219c.862,0,1.391.234,1.391,1.317l-.025,3.361c0,.259.136.419.456.419a1.173,1.173,0,0,0,.357-.062l.1,1a1.636,1.636,0,0,1-1.058.32,1.381,1.381,0,0,1-1.527-1.527l.025-3.152c0-.258-.161-.419-.481-.419a1.182,1.182,0,0,0-.357.061l-.1-1.12A4.924,4.924,0,0,1,153.47,426.219Zm-.665-1.674a1.071,1.071,0,1,1,2.143,0,1.071,1.071,0,0,1-2.143,0Z" transform="translate(-94.463 -262.74)" fill="#00c1d4"/>
      <path id="Trazado_394" data-name="Trazado 394" d="M170.249,432.2c0,1.342-1.182,2.2-4.026,2.291a1.692,1.692,0,0,0,1.749.972,4.88,4.88,0,0,0,1.834-.406l.431,1.169a5.548,5.548,0,0,1-2.512.628,3.045,3.045,0,0,1-3.275-3.214,3.174,3.174,0,0,1,3.3-3.324C168.98,430.318,170.249,430.872,170.249,432.2Zm-1.724.037c0-.419-.284-.6-.837-.6a1.678,1.678,0,0,0-1.626,1.6C167.787,433.15,168.525,432.965,168.525,432.239Z" transform="translate(-102.031 -266.987)" fill="#00c1d4"/>
      <path id="Trazado_395" data-name="Trazado 395" d="M183.17,431.842a1.184,1.184,0,0,0-.357.061l-.1-1a1.64,1.64,0,0,1,1.059-.32,1.376,1.376,0,0,1,1.379.763,2.472,2.472,0,0,1,2.007-.837,2.019,2.019,0,0,1,1.97,1.034,2.4,2.4,0,0,1,2.142-1.034c1.342,0,2.253.689,2.253,2.4v2.352c0,.259.136.419.455.419a1.167,1.167,0,0,0,.357-.062l.1,1a1.639,1.639,0,0,1-1.059.32,1.381,1.381,0,0,1-1.527-1.527v-2.339c0-.9-.493-1.207-1.133-1.207a1.33,1.33,0,0,0-1.305.813v4.113h-1.674v-3.719c0-.9-.493-1.207-1.133-1.207a1.363,1.363,0,0,0-1.306.825v4.1h-1.674v-4.531C183.625,432,183.49,431.842,183.17,431.842Z" transform="translate(-113.363 -267.108)" fill="#00c1d4"/>
      <path id="Trazado_396" data-name="Trazado 396" d="M216.132,431.861a1.182,1.182,0,0,0-.357.061l-.1-1a1.64,1.64,0,0,1,1.059-.32,1.568,1.568,0,0,1,1.145.406,3.308,3.308,0,0,1,1.724-.468,2.945,2.945,0,0,1,3.041,3.177,3.034,3.034,0,0,1-3.3,3.214,6.228,6.228,0,0,1-1.084-.1v2.056l-1.674.061V432.28C216.587,432.022,216.452,431.861,216.132,431.861Zm3.029,3.793a1.743,1.743,0,0,0,1.834-1.983c0-.948-.394-1.724-1.637-1.724a4.894,4.894,0,0,0-1.1.161v3.423A3.369,3.369,0,0,0,219.161,435.654Z" transform="translate(-133.814 -267.127)" fill="#00c1d4"/>
      <path id="Trazado_397" data-name="Trazado 397" d="M237.479,431.842a1.184,1.184,0,0,0-.357.061l-.1-1a1.64,1.64,0,0,1,1.059-.32,1.352,1.352,0,0,1,1.477,1.046,2.612,2.612,0,0,1,2.192-1.12,2.168,2.168,0,0,1,.579.074l-.1,1.5a5.043,5.043,0,0,0-.972-.111c-1,0-1.65.529-1.65,1.945v2.869h-1.674v-4.531C237.934,432,237.8,431.842,237.479,431.842Z" transform="translate(-147.059 -267.108)" fill="#00c1d4"/>
      <path id="Trazado_398" data-name="Trazado 398" d="M259.66,432.2c0,1.342-1.182,2.2-4.026,2.291a1.691,1.691,0,0,0,1.748.972,4.882,4.882,0,0,0,1.834-.406l.431,1.169a5.548,5.548,0,0,1-2.512.628,3.046,3.046,0,0,1-3.276-3.214,3.174,3.174,0,0,1,3.3-3.324C258.392,430.318,259.66,430.872,259.66,432.2Zm-1.724.037c0-.419-.284-.6-.838-.6a1.678,1.678,0,0,0-1.625,1.6C257.2,433.15,257.936,432.965,257.936,432.239Z" transform="translate(-157.505 -266.987)" fill="#00c1d4"/>
      <path id="Trazado_399" data-name="Trazado 399" d="M281.665,424.761a1.166,1.166,0,0,0-.357.062l-.1-1a1.647,1.647,0,0,1,1.059-.32,1.381,1.381,0,0,1,1.527,1.527v1.945a2.868,2.868,0,0,1,2.031-.812c1.232,0,2.179.689,2.179,2.4v2.352c0,.259.135.419.455.419a1.17,1.17,0,0,0,.358-.062l.1,1a1.64,1.64,0,0,1-1.059.32,1.381,1.381,0,0,1-1.527-1.527v-2.339c0-.874-.492-1.207-1.256-1.207a1.53,1.53,0,0,0-1.281.542v4.383h-1.674V425.18C282.121,424.922,281.985,424.761,281.665,424.761Z" transform="translate(-174.473 -262.76)" fill="#00c1d4"/>
      <path id="Trazado_400" data-name="Trazado 400" d="M310.1,433.024v2.241c0,.259.136.419.456.419a1.169,1.169,0,0,0,.357-.062l.1,1a1.639,1.639,0,0,1-1.059.32,1.393,1.393,0,0,1-1.391-.775,2.205,2.205,0,0,1-1.822.751,1.843,1.843,0,0,1-2.106-1.97c0-1.391.911-1.9,2.253-1.9a6.988,6.988,0,0,1,1.539.2v-.074c0-1.121-.739-1.305-1.379-1.305a4.177,4.177,0,0,0-1.724.419l-.517-1.157a5.735,5.735,0,0,1,2.524-.615C308.967,430.513,310.1,431.337,310.1,433.024Zm-2.943,2.561a2.024,2.024,0,0,0,1.268-.419v-.739a4.178,4.178,0,0,0-1.182-.184c-.628,0-.936.184-.936.7C306.308,435.426,306.59,435.585,307.157,435.585Z" transform="translate(-189.007 -267.108)" fill="#00c1d4"/>
      <path id="Trazado_401" data-name="Trazado 401" d="M330.395,433.018h-1.588a1.248,1.248,0,0,0-1.28-1.391c-.972,0-1.441.763-1.441,1.8a1.713,1.713,0,0,0,1.785,1.921,2.987,2.987,0,0,0,1.748-.591l.763,1.12a4.046,4.046,0,0,1-2.733.961,3.048,3.048,0,0,1-3.226-3.226,3.108,3.108,0,0,1,3.226-3.325A2.577,2.577,0,0,1,330.395,433.018Z" transform="translate(-201.285 -266.966)" fill="#00c1d4"/>
      <path id="Trazado_402" data-name="Trazado 402" d="M344.361,426.219c.862,0,1.391.234,1.391,1.317l-.025,3.361c0,.259.135.419.456.419a1.173,1.173,0,0,0,.357-.062l.1,1a1.642,1.642,0,0,1-1.059.32,1.381,1.381,0,0,1-1.527-1.527l.024-3.152c0-.258-.16-.419-.48-.419a1.182,1.182,0,0,0-.357.061l-.1-1.12A4.924,4.924,0,0,1,344.361,426.219Zm-.665-1.674a1.071,1.071,0,1,1,2.143,0,1.071,1.071,0,0,1-2.143,0Z" transform="translate(-212.899 -262.74)" fill="#00c1d4"/>
      <path id="Trazado_403" data-name="Trazado 403" d="M360.936,433.024v2.241c0,.259.136.419.456.419a1.167,1.167,0,0,0,.357-.062l.1,1a1.639,1.639,0,0,1-1.059.32,1.392,1.392,0,0,1-1.391-.775,2.207,2.207,0,0,1-1.822.751,1.843,1.843,0,0,1-2.106-1.97c0-1.391.911-1.9,2.253-1.9a6.989,6.989,0,0,1,1.539.2v-.074c0-1.121-.739-1.305-1.379-1.305a4.178,4.178,0,0,0-1.724.419l-.517-1.157a5.735,5.735,0,0,1,2.524-.615C359.8,430.513,360.936,431.337,360.936,433.024Zm-2.943,2.561a2.024,2.024,0,0,0,1.268-.419v-.739a4.178,4.178,0,0,0-1.182-.184c-.628,0-.936.184-.936.7C357.145,435.426,357.427,435.585,357.994,435.585Z" transform="translate(-220.548 -267.108)" fill="#00c1d4"/>
      <path id="Trazado_404" data-name="Trazado 404" d="M389.94,433.024v2.241c0,.259.135.419.455.419a1.169,1.169,0,0,0,.357-.062l.1,1a1.64,1.64,0,0,1-1.059.32,1.393,1.393,0,0,1-1.391-.775,2.206,2.206,0,0,1-1.822.751,1.843,1.843,0,0,1-2.106-1.97c0-1.391.912-1.9,2.253-1.9a6.988,6.988,0,0,1,1.539.2v-.074c0-1.121-.739-1.305-1.379-1.305a4.174,4.174,0,0,0-1.724.419l-.518-1.157a5.738,5.738,0,0,1,2.524-.615C388.807,430.513,389.94,431.337,389.94,433.024ZM387,435.585a2.024,2.024,0,0,0,1.268-.419v-.739a4.182,4.182,0,0,0-1.182-.184c-.628,0-.936.184-.936.7C386.148,435.426,386.431,435.585,387,435.585Z" transform="translate(-238.542 -267.108)" fill="#00c1d4"/>
      <path id="Trazado_405" data-name="Trazado 405" d="M410.172,432.592a1.393,1.393,0,0,1-1.366-.726,2.009,2.009,0,0,1-1.7.7c-1.884,0-2.844-1.391-2.844-3.152a2.938,2.938,0,0,1,3.017-3.238,2.585,2.585,0,0,1,1.366.345v-1.4c0-.308-.1-.382-.381-.382-.049,0-.123,0-.307.013l-.1-1.182a6.5,6.5,0,0,1,.825-.061c1.059,0,1.638.468,1.638,1.527v5.885c0,.259.135.419.455.419a1.172,1.172,0,0,0,.358-.062l.1,1A1.64,1.64,0,0,1,410.172,432.592Zm-2.733-1.3a2.352,2.352,0,0,0,1.207-.345v-3.189a2.932,2.932,0,0,0-1.157-.234c-1.219,0-1.563.652-1.563,1.749C405.924,430.216,406.183,431.287,407.439,431.287Z" transform="translate(-250.82 -262.76)" fill="#00c1d4"/>
      <path id="Trazado_406" data-name="Trazado 406" d="M431.41,432.2c0,1.342-1.182,2.2-4.026,2.291a1.693,1.693,0,0,0,1.749.972,4.884,4.884,0,0,0,1.834-.406l.431,1.169a5.548,5.548,0,0,1-2.512.628,3.045,3.045,0,0,1-3.275-3.214,3.174,3.174,0,0,1,3.3-3.324C430.141,430.318,431.41,430.872,431.41,432.2Zm-1.724.037c0-.419-.283-.6-.837-.6a1.678,1.678,0,0,0-1.625,1.6C428.947,433.15,429.686,432.965,429.686,432.239Z" transform="translate(-264.066 -266.987)" fill="#00c1d4"/>
      <path id="Trazado_407" data-name="Trazado 407" d="M445.664,432.592a1.381,1.381,0,0,1-1.527-1.527V425.18c0-.258-.136-.419-.456-.419a1.165,1.165,0,0,0-.357.062l-.1-1a1.646,1.646,0,0,1,1.059-.32,1.381,1.381,0,0,1,1.527,1.527v5.885c0,.259.135.419.455.419a1.169,1.169,0,0,0,.357-.062l.1,1A1.637,1.637,0,0,1,445.664,432.592Z" transform="translate(-274.995 -262.76)" fill="#00c1d4"/>
      <path id="Trazado_408" data-name="Trazado 408" d="M461.021,433.024v2.241c0,.259.135.419.455.419a1.169,1.169,0,0,0,.357-.062l.1,1a1.639,1.639,0,0,1-1.059.32,1.393,1.393,0,0,1-1.391-.775,2.206,2.206,0,0,1-1.822.751,1.843,1.843,0,0,1-2.105-1.97c0-1.391.911-1.9,2.253-1.9a6.988,6.988,0,0,1,1.539.2v-.074c0-1.121-.739-1.305-1.379-1.305a4.177,4.177,0,0,0-1.724.419l-.517-1.157a5.735,5.735,0,0,1,2.524-.615C459.889,430.513,461.021,431.337,461.021,433.024Zm-2.943,2.561a2.024,2.024,0,0,0,1.268-.419v-.739a4.178,4.178,0,0,0-1.182-.184c-.628,0-.936.184-.936.7C457.23,435.426,457.512,435.585,458.079,435.585Z" transform="translate(-282.645 -267.108)" fill="#00c1d4"/>
      <path id="Trazado_409" data-name="Trazado 409" d="M474.891,431.842a1.184,1.184,0,0,0-.357.061l-.1-1a1.64,1.64,0,0,1,1.059-.32,1.391,1.391,0,0,1,1.4.8,2.959,2.959,0,0,1,2.228-.874c1.355,0,2.13.7,2.13,2.4v2.352c0,.259.135.419.455.419a1.165,1.165,0,0,0,.357-.062l.1,1a1.64,1.64,0,0,1-1.059.32,1.381,1.381,0,0,1-1.527-1.527v-2.339c0-.911-.382-1.207-1.022-1.207a1.7,1.7,0,0,0-1.539.849v4.076h-1.674v-4.531C475.347,432,475.211,431.842,474.891,431.842Z" transform="translate(-294.358 -267.108)" fill="#00c1d4"/>
      <path id="Trazado_410" data-name="Trazado 410" d="M499.967,433.271a5.106,5.106,0,0,0,1.022-.136l.247,1.207a4.706,4.706,0,0,1-1.773.32c-.948,0-1.884-.369-1.884-1.774v-3.262h-.886l.1-1.182h.788v-1.416l1.675-.246v1.662h1.638l-.1,1.182h-1.539v3.041C499.253,433.1,499.475,433.271,499.967,433.271Z" transform="translate(-308.168 -264.793)" fill="#00c1d4"/>
      <path id="Trazado_411" data-name="Trazado 411" d="M517.446,432.2c0,1.342-1.182,2.2-4.026,2.291a1.692,1.692,0,0,0,1.748.972,4.884,4.884,0,0,0,1.834-.406l.431,1.169a5.548,5.548,0,0,1-2.512.628,3.046,3.046,0,0,1-3.275-3.214,3.174,3.174,0,0,1,3.3-3.324C516.178,430.318,517.446,430.872,517.446,432.2Zm-1.724.037c0-.419-.284-.6-.837-.6a1.678,1.678,0,0,0-1.626,1.6C514.984,433.15,515.723,432.965,515.723,432.239Z" transform="translate(-317.446 -266.987)" fill="#00c1d4"/>
    </g>
  </g>
</svg>
